<?xml version="1.0" standalone="no"?><!DOCTYPE svg PUBLIC "-//W3C//DTD SVG 1.1//EN" "http://www.w3.org/Graphics/SVG/1.1/DTD/svg11.dtd"><svg t="1775203581659" class="icon" viewBox="0 0 1024 1024" version="1.1" xmlns="http://www.w3.org/2000/svg" p-id="10274" xmlns:xlink="http://www.w3.org/1999/xlink" width="200" height="200"><path d="M804.571429 109.714286L877.714286 109.714286c18.285714 0 36.571429 14.628571 36.571428 36.571428 0 10.97142901-3.657143 18.285714-10.971428 25.60000001l-373.028572 321.82857199L899.657143 819.2c14.628571 10.971429 18.285714 32.914286 3.657143 47.542857-3.657143 7.31428601-14.628571 10.971429-25.6 10.971429l-73.142857 0c-10.97142901 0-25.6-3.657143-32.914286-14.628572l-380.342857-332.8c-21.942857-18.285714-25.6-51.2-3.657143-73.142857l3.657143-3.657143 380.342857-329.142857c7.314286-10.97142901 21.942857-14.628571 32.914286-14.628571zM230.4 819.2c0 32.914286-25.6 58.514286-62.171429 58.514286-32.914286 0-58.514286-25.6-58.51428499-58.514286l0-647.314286c0-32.914286 25.6-58.514286 62.17142799-58.514285 32.914286 0 62.171429 25.6 62.171429 58.514285L234.057143 819.2z" fill="#ffffff" p-id="10275"></path></svg>