<?xml version="1.0" standalone="no"?><!DOCTYPE svg PUBLIC "-//W3C//DTD SVG 1.1//EN" "http://www.w3.org/Graphics/SVG/1.1/DTD/svg11.dtd"><svg t="1775203576282" class="icon" viewBox="0 0 1024 1024" version="1.1" xmlns="http://www.w3.org/2000/svg" p-id="10093" xmlns:xlink="http://www.w3.org/1999/xlink" width="200" height="200"><path d="M219.428571 914.285714H146.285714c-18.285714 0-36.571429-14.628571-36.571428-36.571428 0-10.971429 3.657143-18.285714 10.971428-25.6l373.028572-321.828572L124.342857 204.8c-14.628571-10.971429-18.285714-32.914286-3.657143-47.542857 3.657143-7.314286 14.628571-10.971429 25.6-10.971429h73.142857c10.971429 0 25.6 3.657143 32.914286 14.628572l380.342857 332.8c21.942857 18.285714 25.6 51.2 3.657143 73.142857l-3.657143 3.657143-380.342857 329.142857c-7.314286 10.971429-21.942857 14.628571-32.914286 14.628571zM793.6 204.8c0-32.914286 25.6-58.514286 62.171429-58.514286 32.914286 0 58.514286 25.6 58.514285 58.514286v647.314286c0 32.914286-25.6 58.514286-62.171428 58.514285-32.914286 0-62.171429-25.6-62.171429-58.514285V204.8z" fill="#ffffff" p-id="10094"></path></svg>