<?xml version="1.0" standalone="no"?><!DOCTYPE svg PUBLIC "-//W3C//DTD SVG 1.1//EN" "http://www.w3.org/Graphics/SVG/1.1/DTD/svg11.dtd"><svg t="1775202375317" class="icon" viewBox="0 0 1024 1024" version="1.1" xmlns="http://www.w3.org/2000/svg" p-id="1883" xmlns:xlink="http://www.w3.org/1999/xlink" width="200" height="200"><path d="M513.024 81.92C276.48 81.92 83.968 274.432 83.968 510.976S276.48 940.032 513.024 940.032 942.08 747.52 942.08 510.976 749.568 81.92 513.024 81.92z m0 817.152C299.008 899.072 124.928 724.992 124.928 510.976S299.008 122.88 513.024 122.88 901.12 296.96 901.12 510.976 727.04 899.072 513.024 899.072z" p-id="1884"></path><path d="M682.5984 490.2912l-251.0848-138.8544c-16.5888-9.216-37.0688 2.2528-37.0688 20.48v278.1184c0 18.2272 20.6848 29.696 37.0688 20.48l251.0848-139.0592c16.5888-9.216 16.5888-31.9488 0-41.1648z" p-id="1885"></path></svg>